<svg xmlns="http://www.w3.org/2000/svg" version="1.1" xmlns:xlink="http://www.w3.org/1999/xlink" xmlns:svgjs="http://svgjs.com/svgjs" width="1920" height="1080" preserveAspectRatio="none" viewBox="0 0 1920 1080"><g mask="url(&quot;#SvgjsMask1027&quot;)" fill="none"><rect width="1920" height="1080" x="0" y="0" fill="rgba(24, 24, 24, 1)"></rect><path d="M1244.3 1172.37C1421.84 985.27 1300.41 216.07 1593.03 201.38 1885.65 186.69 2084.75 626 2290.49 644.18" stroke="rgba(241, 188, 49, 1)" stroke-width="2"></path><path d="M121.53 1213.11C372.4 1204.97 530.48 843.29 1044.88 818.83 1559.29 794.37 1704.08 317.76 1968.24 300.43" stroke="rgba(241, 188, 49, 1)" stroke-width="2"></path><path d="M627.79 1187.77C773.19 1182.32 891.79 948.68 1158.35 948.56 1424.91 948.44 1423.63 1083.56 1688.91 1083.56 1954.19 1083.56 2082.61 949.61 2219.47 948.56" stroke="rgba(241, 188, 49, 1)" stroke-width="2"></path><path d="M693.78 1279.26C871.26 1223.38 808.32 713.35 1175.94 712.26 1543.55 711.17 1887.62 1011.14 2140.25 1014.66" stroke="rgba(241, 188, 49, 1)" stroke-width="2"></path><path d="M664.46 1226.87C891.15 1171.2 910.34 612.72 1316.36 558.43 1722.38 504.14 1786.48 243.2 1968.26 234.43" stroke="rgba(241, 188, 49, 1)" stroke-width="2"></path></g><defs><mask id="SvgjsMask1027"><rect width="1920" height="1080" fill="#ffffff"></rect></mask></defs></svg>