<svg xmlns="http://www.w3.org/2000/svg" version="1.1" xmlns:xlink="http://www.w3.org/1999/xlink" xmlns:svgjs="http://svgjs.com/svgjs" width="1920" height="1080" preserveAspectRatio="none" viewBox="0 0 1920 1080"><g mask="url(&quot;#SvgjsMask1042&quot;)" fill="none"><rect width="1920" height="1080" x="0" y="0" fill="rgba(255, 255, 255, 1)"></rect><path d="M-276.7 451.53C-131.85 452.47 5.04 586.53 286.78 586.53 568.52 586.53 526.44 429.29 850.26 451.53 1174.08 473.77 1191.44 1139.44 1413.74 1231.2" stroke="rgba(241, 188, 49, 1)" stroke-width="2"></path><path d="M-78.5 236.52C112.8 248.21 244.65 519.19 594.45 603.72 944.25 688.25 778.15 1158.44 930.92 1262.76" stroke="rgba(241, 188, 49, 1)" stroke-width="2"></path><path d="M-88.88 128.68C156.96 133.78 309.89 431.15 835.97 463.48 1362.04 495.81 1476.42 1105.48 1760.81 1140.33" stroke="rgba(241, 188, 49, 1)" stroke-width="2"></path><path d="M-24.47 551.64C180.04 544.84 313.93 211.4 727.16 227.64 1140.39 243.88 1185.4 1125.67 1478.79 1242.03" stroke="rgba(241, 188, 49, 1)" stroke-width="2"></path><path d="M-65.58 742.15C195.49 732.19 397.69 307.31 885.97 310.15 1374.25 312.99 1521.06 1119.09 1837.52 1181.47" stroke="rgba(241, 188, 49, 1)" stroke-width="2"></path></g><defs><mask id="SvgjsMask1042"><rect width="1920" height="1080" fill="#ffffff"></rect></mask></defs></svg>