<svg xmlns="http://www.w3.org/2000/svg" version="1.1" xmlns:xlink="http://www.w3.org/1999/xlink" xmlns:svgjs="http://svgjs.com/svgjs" width="1920" height="1080" preserveAspectRatio="none" viewBox="0 0 1920 1080"><g mask="url(&quot;#SvgjsMask1097&quot;)" fill="none"><rect width="1920" height="1080" x="0" y="0" fill="rgba(24, 24, 24, 1)"></rect><path d="M277 989L-199 1465" stroke-width="6" stroke="url(#SvgjsLinearGradient1098)" stroke-linecap="round" class="BottomLeft"></path><path d="M1201 86L1953 -666" stroke-width="10" stroke="url(#SvgjsLinearGradient1098)" stroke-linecap="round" class="BottomLeft"></path><path d="M1460 542L2110 -108" stroke-width="8" stroke="url(#SvgjsLinearGradient1099)" stroke-linecap="round" class="TopRight"></path><path d="M1741 613L1430 924" stroke-width="8" stroke="url(#SvgjsLinearGradient1098)" stroke-linecap="round" class="BottomLeft"></path><path d="M849 90L42 897" stroke-width="6" stroke="url(#SvgjsLinearGradient1099)" stroke-linecap="round" class="TopRight"></path><path d="M117 674L-340 1131" stroke-width="6" stroke="url(#SvgjsLinearGradient1098)" stroke-linecap="round" class="BottomLeft"></path><path d="M1300 1073L1721 652" stroke-width="6" stroke="url(#SvgjsLinearGradient1099)" stroke-linecap="round" class="TopRight"></path><path d="M469 875L-239 1583" stroke-width="10" stroke="url(#SvgjsLinearGradient1099)" stroke-linecap="round" class="TopRight"></path><path d="M1661 66L2324 -597" stroke-width="8" stroke="url(#SvgjsLinearGradient1098)" stroke-linecap="round" class="BottomLeft"></path><path d="M1384 265L875 774" stroke-width="6" stroke="url(#SvgjsLinearGradient1099)" stroke-linecap="round" class="TopRight"></path><path d="M132 941L-561 1634" stroke-width="8" stroke="url(#SvgjsLinearGradient1098)" stroke-linecap="round" class="BottomLeft"></path><path d="M758 34L1377 -585" stroke-width="6" stroke="url(#SvgjsLinearGradient1099)" stroke-linecap="round" class="TopRight"></path><path d="M1851 359L2311 -101" stroke-width="8" stroke="url(#SvgjsLinearGradient1098)" stroke-linecap="round" class="BottomLeft"></path><path d="M677 435L13 1099" stroke-width="6" stroke="url(#SvgjsLinearGradient1099)" stroke-linecap="round" class="TopRight"></path><path d="M1531 259L2087 -297" stroke-width="8" stroke="url(#SvgjsLinearGradient1098)" stroke-linecap="round" class="BottomLeft"></path><path d="M105 683L871 -83" stroke-width="6" stroke="url(#SvgjsLinearGradient1098)" stroke-linecap="round" class="BottomLeft"></path><path d="M883 776L421 1238" stroke-width="6" stroke="url(#SvgjsLinearGradient1099)" stroke-linecap="round" class="TopRight"></path><path d="M261 559L729 91" stroke-width="6" stroke="url(#SvgjsLinearGradient1098)" stroke-linecap="round" class="BottomLeft"></path><path d="M1511 50L808 753" stroke-width="6" stroke="url(#SvgjsLinearGradient1099)" stroke-linecap="round" class="TopRight"></path><path d="M1702 442L2176 -32" stroke-width="6" stroke="url(#SvgjsLinearGradient1099)" stroke-linecap="round" class="TopRight"></path><path d="M105 472L393 184" stroke-width="6" stroke="url(#SvgjsLinearGradient1098)" stroke-linecap="round" class="BottomLeft"></path><path d="M260 17L1062 -785" stroke-width="8" stroke="url(#SvgjsLinearGradient1099)" stroke-linecap="round" class="TopRight"></path><path d="M120 819L-518 1457" stroke-width="10" stroke="url(#SvgjsLinearGradient1098)" stroke-linecap="round" class="BottomLeft"></path><path d="M1648 998L1177 1469" stroke-width="6" stroke="url(#SvgjsLinearGradient1098)" stroke-linecap="round" class="BottomLeft"></path><path d="M190 402L771 -179" stroke-width="10" stroke="url(#SvgjsLinearGradient1098)" stroke-linecap="round" class="BottomLeft"></path><path d="M945 1057L1422 580" stroke-width="10" stroke="url(#SvgjsLinearGradient1098)" stroke-linecap="round" class="BottomLeft"></path><path d="M968 897L465 1400" stroke-width="6" stroke="url(#SvgjsLinearGradient1099)" stroke-linecap="round" class="TopRight"></path><path d="M1868 796L2254 410" stroke-width="6" stroke="url(#SvgjsLinearGradient1099)" stroke-linecap="round" class="TopRight"></path><path d="M61 476L-573 1110" stroke-width="8" stroke="url(#SvgjsLinearGradient1098)" stroke-linecap="round" class="BottomLeft"></path><path d="M760 40L21 779" stroke-width="6" stroke="url(#SvgjsLinearGradient1098)" stroke-linecap="round" class="BottomLeft"></path><path d="M869 252L74 1047" stroke-width="8" stroke="url(#SvgjsLinearGradient1099)" stroke-linecap="round" class="TopRight"></path><path d="M828 723L1217 334" stroke-width="6" stroke="url(#SvgjsLinearGradient1098)" stroke-linecap="round" class="BottomLeft"></path><path d="M266 301L1010 -443" stroke-width="8" stroke="url(#SvgjsLinearGradient1098)" stroke-linecap="round" class="BottomLeft"></path><path d="M840 424L1209 55" stroke-width="8" stroke="url(#SvgjsLinearGradient1098)" stroke-linecap="round" class="BottomLeft"></path><path d="M1455 125L1145 435" stroke-width="8" stroke="url(#SvgjsLinearGradient1099)" stroke-linecap="round" class="TopRight"></path><path d="M351 884L-139 1374" stroke-width="6" stroke="url(#SvgjsLinearGradient1098)" stroke-linecap="round" class="BottomLeft"></path><path d="M710 728L320 1118" stroke-width="8" stroke="url(#SvgjsLinearGradient1099)" stroke-linecap="round" class="TopRight"></path><path d="M1679 1005L2152 532" stroke-width="10" stroke="url(#SvgjsLinearGradient1098)" stroke-linecap="round" class="BottomLeft"></path><path d="M1305 150L683 772" stroke-width="10" stroke="url(#SvgjsLinearGradient1099)" stroke-linecap="round" class="TopRight"></path><path d="M1481 474L730 1225" stroke-width="6" stroke="url(#SvgjsLinearGradient1098)" stroke-linecap="round" class="BottomLeft"></path><path d="M951 668L1616 3" stroke-width="6" stroke="url(#SvgjsLinearGradient1098)" stroke-linecap="round" class="BottomLeft"></path><path d="M480 503L80 903" stroke-width="8" stroke="url(#SvgjsLinearGradient1099)" stroke-linecap="round" class="TopRight"></path><path d="M1801 714L2445 70" stroke-width="6" stroke="url(#SvgjsLinearGradient1099)" stroke-linecap="round" class="TopRight"></path><path d="M1878 634L1242 1270" stroke-width="8" stroke="url(#SvgjsLinearGradient1099)" stroke-linecap="round" class="TopRight"></path><path d="M1608 259L999 868" stroke-width="8" stroke="url(#SvgjsLinearGradient1098)" stroke-linecap="round" class="BottomLeft"></path><path d="M297 793L-295 1385" stroke-width="10" stroke="url(#SvgjsLinearGradient1099)" stroke-linecap="round" class="TopRight"></path><path d="M160 289L-189 638" stroke-width="8" stroke="url(#SvgjsLinearGradient1099)" stroke-linecap="round" class="TopRight"></path><path d="M1120 961L579 1502" stroke-width="10" stroke="url(#SvgjsLinearGradient1099)" stroke-linecap="round" class="TopRight"></path><path d="M1664 79L2384 -641" stroke-width="8" stroke="url(#SvgjsLinearGradient1098)" stroke-linecap="round" class="BottomLeft"></path><path d="M794 198L1193 -201" stroke-width="6" stroke="url(#SvgjsLinearGradient1099)" stroke-linecap="round" class="TopRight"></path><path d="M574 379L-155 1108" stroke-width="8" stroke="url(#SvgjsLinearGradient1099)" stroke-linecap="round" class="TopRight"></path><path d="M509 497L780 226" stroke-width="10" stroke="url(#SvgjsLinearGradient1099)" stroke-linecap="round" class="TopRight"></path><path d="M1586 1075L801 1860" stroke-width="6" stroke="url(#SvgjsLinearGradient1098)" stroke-linecap="round" class="BottomLeft"></path><path d="M528 1079L120 1487" stroke-width="6" stroke="url(#SvgjsLinearGradient1099)" stroke-linecap="round" class="TopRight"></path><path d="M435 974L848 561" stroke-width="8" stroke="url(#SvgjsLinearGradient1099)" stroke-linecap="round" class="TopRight"></path><path d="M648 694L142 1200" stroke-width="10" stroke="url(#SvgjsLinearGradient1099)" stroke-linecap="round" class="TopRight"></path></g><defs><mask id="SvgjsMask1097"><rect width="1920" height="1080" fill="#ffffff"></rect></mask><linearGradient x1="100%" y1="0%" x2="0%" y2="100%" id="SvgjsLinearGradient1098"><stop stop-color="rgba(241, 188, 49, 0)" offset="0"></stop><stop stop-color="rgba(241, 188, 49, 1)" offset="1"></stop></linearGradient><linearGradient x1="0%" y1="100%" x2="100%" y2="0%" id="SvgjsLinearGradient1099"><stop stop-color="rgba(241, 188, 49, 0)" offset="0"></stop><stop stop-color="rgba(241, 188, 49, 1)" offset="1"></stop></linearGradient></defs></svg>