<svg xmlns="http://www.w3.org/2000/svg" version="1.1" xmlns:xlink="http://www.w3.org/1999/xlink" xmlns:svgjs="http://svgjs.com/svgjs" width="1920" height="1080" preserveAspectRatio="none" viewBox="0 0 1920 1080"><g mask="url(&quot;#SvgjsMask1037&quot;)" fill="none"><rect width="1920" height="1080" x="0" y="0" fill="rgba(255, 255, 255, 1)"></rect><path d="M -378.78956857997537,233 C -250.79,367.6 5.21,859.2 261.21043142002463,906 C 517.21,952.8 645.21,490.4 901.2104314200246,467 C 1157.21,443.6 1285.21,840.2 1541.2104314200246,789 C 1797.21,737.8 2105.45,195.6 2181.2104314200246,211 C 2256.97,226.4 1972.24,735 1920,866" stroke="rgba(241, 188, 49, 1)" stroke-width="2"></path><path d="M -1264.2973020993672,381 C -1136.3,495.8 -880.3,948.8 -624.2973020993674,955 C -368.3,961.2 -240.3,437.4 15.702697900632643,412 C 271.7,386.6 399.7,869.6 655.7026979006326,828 C 911.7,786.4 1042.84,185 1295.7026979006328,204 C 1548.56,223 1795.14,779.2 1920,923" stroke="rgba(241, 188, 49, 1)" stroke-width="2"></path><path d="M -345.51459148129993,153 C -217.51,283.2 38.49,812 294.48540851870007,804 C 550.49,796 678.49,100.4 934.4854085187001,113 C 1190.49,125.6 1318.49,787 1574.4854085187,867 C 1830.49,947 2145.38,492 2214.4854085187,513 C 2283.59,534 1978.9,880.2 1920,972" stroke="rgba(241, 188, 49, 1)" stroke-width="2"></path><path d="M -1115.3402272734852,654 C -987.34,597.8 -731.34,369 -475.3402272734853,373 C -219.34,377 -91.34,708.8 164.6597727265147,674 C 420.66,639.2 548.66,141.2 804.6597727265147,199 C 1060.66,256.8 1221.59,902.4 1444.6597727265148,963 C 1667.73,1023.6 1824.93,594.2 1920,502" stroke="rgba(241, 188, 49, 1)" stroke-width="2"></path></g><defs><mask id="SvgjsMask1037"><rect width="1920" height="1080" fill="#ffffff"></rect></mask></defs></svg>